<svg width="20" height="20" viewBox="0 0 20 20" fill="none" xmlns="http://www.w3.org/2000/svg">
<path d="M14.1668 11.6663V16.6663M11.6668 14.1663H16.6668M5.00016 8.33301H6.66683C7.5873 8.33301 8.3335 7.58682 8.3335 6.66634V4.99967C8.3335 4.0792 7.5873 3.33301 6.66683 3.33301H5.00016C4.07969 3.33301 3.3335 4.0792 3.3335 4.99967V6.66634C3.3335 7.58682 4.07969 8.33301 5.00016 8.33301ZM13.3335 8.33301H15.0002C15.9206 8.33301 16.6668 7.58682 16.6668 6.66634V4.99967C16.6668 4.0792 15.9206 3.33301 15.0002 3.33301H13.3335C12.413 3.33301 11.6668 4.0792 11.6668 4.99967V6.66634C11.6668 7.58682 12.413 8.33301 13.3335 8.33301ZM5.00016 16.6663H6.66683C7.5873 16.6663 8.3335 15.9201 8.3335 14.9997V13.333C8.3335 12.4125 7.5873 11.6663 6.66683 11.6663H5.00016C4.07969 11.6663 3.3335 12.4125 3.3335 13.333V14.9997C3.3335 15.9201 4.07969 16.6663 5.00016 16.6663Z" stroke="white" stroke-linecap="round" stroke-linejoin="round"/>
</svg>
