<svg width="20" height="20" viewBox="0 0 20 20" fill="none" xmlns="http://www.w3.org/2000/svg">
<path d="M16.6668 10.833V4.99967C16.6668 4.0792 15.9206 3.33301 15.0002 3.33301H5.00016C4.07969 3.33301 3.3335 4.0792 3.3335 4.99967V10.833M16.6668 10.833V14.9997C16.6668 15.9201 15.9206 16.6663 15.0002 16.6663H5.00016C4.07969 16.6663 3.3335 15.9201 3.3335 14.9997V10.833M16.6668 10.833H14.512C14.291 10.833 14.079 10.9208 13.9228 11.0771L11.9109 13.0889C11.7546 13.2452 11.5427 13.333 11.3217 13.333H8.67867C8.45766 13.333 8.2457 13.2452 8.08942 13.0889L6.07757 11.0771C5.92129 10.9208 5.70933 10.833 5.48832 10.833H3.3335" stroke="#64748B" stroke-width="1.5" stroke-linecap="round" stroke-linejoin="round"/>
</svg>
