<svg width="49" height="45" viewBox="0 0 49 45" fill="none" xmlns="http://www.w3.org/2000/svg">
<g filter="url(#filter0_d_815_2609)">
<path d="M33.2505 26.129C32.03 29.4347 30.8146 32.7009 29.6221 35.9742C29.4928 36.3291 29.3292 36.4558 28.9133 36.4527C26.2901 36.4331 23.6665 36.4309 21.0433 36.452C20.6273 36.4554 20.457 36.3346 20.3269 35.9859C18.6126 31.3936 16.8833 26.8061 15.1572 22.2176C15.0907 22.0408 15.0189 21.8657 14.9495 21.6898C14.9064 21.6973 14.8633 21.7048 14.8201 21.7123C14.4785 26.599 14.1368 31.4858 13.7926 36.409C10.8019 36.409 7.84819 36.409 4.83154 36.409C4.86208 35.8419 4.88494 35.2723 4.92459 34.7038C5.25939 29.9029 5.59821 25.1023 5.93396 20.3015C6.3747 13.9994 6.81794 7.6974 7.24412 1.39444C7.27289 0.969046 7.37469 0.805633 7.88768 0.810616C10.5826 0.836799 13.2781 0.829044 15.9733 0.814232C16.353 0.812143 16.529 0.91266 16.6581 1.25404C19.3359 8.33548 22.0284 15.4122 24.7195 22.4894C24.7718 22.6271 24.8411 22.7594 24.9588 23.018C25.2409 22.2715 25.486 21.6335 25.7233 20.993C28.1501 14.4434 30.5779 7.89414 32.9959 1.34177C33.1337 0.96841 33.3097 0.803801 33.7851 0.8087C36.4441 0.836118 39.1036 0.822132 41.7629 0.822283C41.9564 0.822295 42.1498 0.822283 42.3926 0.822283C43.1482 12.7091 43.9008 24.5488 44.6555 36.4232C44.4754 36.4321 44.373 36.4415 44.2706 36.4416C41.5933 36.443 38.9159 36.4361 36.2387 36.4519C35.8461 36.4543 35.7125 36.3552 35.6899 35.9875C35.4327 31.8114 35.1589 27.6362 34.8877 23.4608C34.8612 23.0521 34.823 22.644 34.6985 22.2231C34.2198 23.5126 33.7411 24.802 33.2505 26.129Z" fill="white"/>
</g>
<defs>
<filter id="filter0_d_815_2609" x="0.831543" y="0.808594" width="47.8242" height="43.6445" filterUnits="userSpaceOnUse" color-interpolation-filters="sRGB">
<feFlood flood-opacity="0" result="BackgroundImageFix"/>
<feColorMatrix in="SourceAlpha" type="matrix" values="0 0 0 0 0 0 0 0 0 0 0 0 0 0 0 0 0 0 127 0" result="hardAlpha"/>
<feOffset dy="4"/>
<feGaussianBlur stdDeviation="2"/>
<feComposite in2="hardAlpha" operator="out"/>
<feColorMatrix type="matrix" values="0 0 0 0 0 0 0 0 0 0 0 0 0 0 0 0 0 0 0.25 0"/>
<feBlend mode="normal" in2="BackgroundImageFix" result="effect1_dropShadow_815_2609"/>
<feBlend mode="normal" in="SourceGraphic" in2="effect1_dropShadow_815_2609" result="shape"/>
</filter>
</defs>
</svg>
