<svg width="34" height="45" viewBox="0 0 34 45" fill="none" xmlns="http://www.w3.org/2000/svg">
<g filter="url(#filter0_d_815_2610)">
<path d="M26.2782 28.2373C27.2278 28.2373 28.1235 28.2373 29.066 28.2373C29.066 30.9696 29.066 33.6698 29.066 36.4091C20.8468 36.4091 12.6115 36.4091 4.32812 36.4091C4.32812 24.6146 4.32812 12.8061 4.32812 0.931641C12.5671 0.931641 20.8145 0.931641 29.0883 0.931641C29.0883 3.61638 29.0883 6.30743 29.0883 9.05854C23.8188 9.05854 18.5499 9.05854 13.2505 9.05854C13.2505 10.8637 13.2505 12.6093 13.2505 14.4118C17.5088 14.4118 21.7734 14.4118 26.082 14.4118C26.082 17.1684 26.082 19.8685 26.082 22.6312C21.8083 22.6312 17.5455 22.6312 13.2492 22.6312C13.2492 24.5195 13.2492 26.3454 13.2492 28.2373C17.5816 28.2373 21.903 28.2373 26.2782 28.2373Z" fill="white"/>
</g>
<defs>
<filter id="filter0_d_815_2610" x="0.328125" y="0.931641" width="32.7603" height="43.4775" filterUnits="userSpaceOnUse" color-interpolation-filters="sRGB">
<feFlood flood-opacity="0" result="BackgroundImageFix"/>
<feColorMatrix in="SourceAlpha" type="matrix" values="0 0 0 0 0 0 0 0 0 0 0 0 0 0 0 0 0 0 127 0" result="hardAlpha"/>
<feOffset dy="4"/>
<feGaussianBlur stdDeviation="2"/>
<feComposite in2="hardAlpha" operator="out"/>
<feColorMatrix type="matrix" values="0 0 0 0 0 0 0 0 0 0 0 0 0 0 0 0 0 0 0.25 0"/>
<feBlend mode="normal" in2="BackgroundImageFix" result="effect1_dropShadow_815_2610"/>
<feBlend mode="normal" in="SourceGraphic" in2="effect1_dropShadow_815_2610" result="shape"/>
</filter>
</defs>
</svg>
