<svg width="36" height="46" viewBox="0 0 36 46" fill="none" xmlns="http://www.w3.org/2000/svg">
<g filter="url(#filter0_d_815_2611)">
<path d="M7.19644 14.399C4.93728 8.79384 7.70611 2.93945 13.639 0.813428C19.4189 -1.25774 27.598 1.23177 29.4829 7.98682C29.7112 8.80509 29.7708 9.66327 29.9158 10.5469C29.6573 10.5646 29.5371 10.5799 29.4168 10.5799C26.7762 10.581 24.1354 10.5733 21.4948 10.5878C21.0913 10.59 20.9209 10.4961 20.8986 10.1028C20.8696 9.59202 20.5527 9.22423 20.0746 8.95382C19.4164 8.58158 18.7162 8.35436 17.9422 8.34683C16.6622 8.33437 15.718 8.97506 15.4209 10.0456C15.1449 11.0403 15.651 12.1504 16.7512 12.6074C17.9895 13.1218 19.277 13.546 20.5678 13.9407C22.6882 14.589 24.7844 15.2701 26.529 16.6154C29.8345 19.1642 31.3486 22.4493 31.0558 26.384C30.5348 33.3854 23.6456 37.6643 16.8138 37.0832C11.4069 36.6234 6.59221 33.0334 5.30455 27.8598C5.07458 26.9358 5.01142 25.9766 4.86328 24.9802C7.92355 24.9802 10.8574 24.9802 13.8335 24.9802C13.8496 25.099 13.8791 25.2234 13.8815 25.3483C13.9149 27.096 15.5511 28.4924 17.0545 28.8238C18.8529 29.2203 20.8717 28.4675 21.7743 27.0589C22.6835 25.6398 22.1075 23.5998 20.4259 22.7676C19.3777 22.2488 18.1976 21.9577 17.0814 21.5533C15.5982 21.0159 14.0752 20.5509 12.6487 19.9061C10.0823 18.7459 8.30737 16.8617 7.19644 14.399Z" fill="white"/>
</g>
<defs>
<filter id="filter0_d_815_2611" x="0.863281" y="0.104492" width="34.228" height="45.0312" filterUnits="userSpaceOnUse" color-interpolation-filters="sRGB">
<feFlood flood-opacity="0" result="BackgroundImageFix"/>
<feColorMatrix in="SourceAlpha" type="matrix" values="0 0 0 0 0 0 0 0 0 0 0 0 0 0 0 0 0 0 127 0" result="hardAlpha"/>
<feOffset dy="4"/>
<feGaussianBlur stdDeviation="2"/>
<feComposite in2="hardAlpha" operator="out"/>
<feColorMatrix type="matrix" values="0 0 0 0 0 0 0 0 0 0 0 0 0 0 0 0 0 0 0.25 0"/>
<feBlend mode="normal" in2="BackgroundImageFix" result="effect1_dropShadow_815_2611"/>
<feBlend mode="normal" in="SourceGraphic" in2="effect1_dropShadow_815_2611" result="shape"/>
</filter>
</defs>
</svg>
