<svg width="456" height="234" viewBox="0 0 456 234" fill="none" xmlns="http://www.w3.org/2000/svg">
<path d="M113.878 150.436C109.173 163.197 104.487 175.805 99.8901 188.441C99.3918 189.811 98.7611 190.3 97.1577 190.288C87.045 190.212 76.9309 190.204 66.8184 190.286C65.2144 190.299 64.5581 189.832 64.0563 188.486C57.4475 170.759 50.7809 153.05 44.1268 135.337C43.8704 134.655 43.5936 133.979 43.3263 133.3C43.16 133.329 42.9937 133.358 42.8274 133.387C41.5102 152.251 40.193 171.115 38.866 190.12C27.3368 190.12 15.9501 190.12 4.32068 190.12C4.43839 187.93 4.52651 185.732 4.67937 183.537C5.97004 165.004 7.27625 146.473 8.57057 127.941C10.2696 103.613 11.9784 79.2859 13.6213 54.955C13.7322 53.3129 14.1247 52.6821 16.1023 52.7013C26.4916 52.8024 36.8829 52.7724 47.273 52.7152C48.7366 52.7072 49.4153 53.0952 49.9129 54.413C60.236 81.749 70.6159 109.067 80.99 136.386C81.1919 136.918 81.4589 137.429 81.9128 138.427C83 135.546 83.945 133.083 84.8599 130.61C94.2156 105.327 103.575 80.0454 112.896 54.7517C113.427 53.3104 114.106 52.675 115.939 52.6939C126.189 52.7997 136.442 52.7457 146.694 52.7463C147.44 52.7464 148.185 52.7463 149.121 52.7463C152.034 98.6324 154.935 144.336 157.845 190.174C157.151 190.209 156.756 190.245 156.361 190.245C146.04 190.251 135.718 190.224 125.398 190.285C123.884 190.294 123.369 189.912 123.282 188.492C122.29 172.372 121.235 156.254 120.189 140.137C120.087 138.559 119.94 136.983 119.46 135.358C117.614 140.336 115.769 145.314 113.878 150.436Z" fill="white"/>
<path d="M433.956 158.572C437.617 158.572 441.07 158.572 444.703 158.572C444.703 169.12 444.703 179.543 444.703 190.117C413.018 190.117 381.27 190.117 349.337 190.117C349.337 144.588 349.337 99.0039 349.337 53.1658C381.099 53.1658 412.893 53.1658 444.79 53.1658C444.79 63.5296 444.79 73.9176 444.79 84.5376C424.475 84.5376 404.163 84.5376 383.734 84.5376C383.734 91.506 383.734 98.2442 383.734 105.202C400.149 105.202 416.59 105.202 433.2 105.202C433.2 115.844 433.2 126.266 433.2 136.931C416.725 136.931 400.291 136.931 383.729 136.931C383.729 144.22 383.729 151.269 383.729 158.572C400.43 158.572 417.089 158.572 433.956 158.572Z" fill="white"/>
<path d="M237.033 105.154C228.324 83.5169 238.998 60.9176 261.87 52.7107C284.152 44.7155 315.683 54.3256 322.949 80.4016C323.829 83.5604 324.059 86.8731 324.618 90.2842C323.621 90.3523 323.158 90.4114 322.695 90.4116C312.515 90.4159 302.334 90.3862 292.155 90.442C290.599 90.4505 289.942 90.088 289.856 88.5697C289.744 86.5981 288.523 85.1783 286.679 84.1345C284.142 82.6976 281.443 81.8204 278.459 81.7914C273.525 81.7433 269.884 84.2165 268.739 88.3488C267.675 92.1889 269.626 96.4741 273.868 98.2382C278.641 100.224 283.605 101.861 288.581 103.385C296.755 105.888 304.836 108.517 311.562 113.71C324.305 123.549 330.142 136.23 329.013 151.419C327.004 178.446 300.446 194.964 274.109 192.721C253.265 190.945 234.704 177.087 229.74 157.116C228.853 153.549 228.61 149.846 228.039 146C239.836 146 251.146 146 262.62 146C262.682 146.459 262.795 146.939 262.805 147.421C262.933 154.168 269.241 159.558 275.037 160.837C281.97 162.368 289.753 159.462 293.232 154.024C296.737 148.546 294.517 140.671 288.034 137.459C283.993 135.456 279.443 134.332 275.141 132.771C269.423 130.697 263.552 128.902 258.052 126.413C248.158 121.934 241.316 114.661 237.033 105.154Z" fill="white"/>
<path d="M171.509 35.5293C171.086 34.8917 170.644 34.2806 170.642 33.6681C170.601 23.3275 170.642 12.9865 170.588 2.64599C170.579 1.04003 171.188 0.617224 172.886 0.625359C185.978 0.688102 199.07 0.690101 212.161 0.633377C213.805 0.626259 214.315 1.06861 214.306 2.57164C214.242 12.912 214.233 23.2529 214.277 33.5934C214.283 35.0309 213.932 35.6077 212.217 35.5997C198.71 35.5365 185.203 35.559 171.509 35.5293Z" fill="#FADB06"/>
<path d="M214.058 156.184C214.091 167.271 214.101 178.358 214.185 189.445C214.197 191.016 213.247 190.98 212.055 190.977C202.927 190.958 193.799 190.962 184.671 190.96C180.591 190.96 176.511 190.948 172.431 190.972C171.337 190.979 170.543 190.855 170.547 189.568C170.576 178.735 170.573 167.902 170.588 157.069C170.588 156.884 170.681 156.699 170.983 156.362C185.509 156.202 199.783 156.193 214.058 156.184Z" fill="#03A79F"/>
<path d="M214.06 156.005C199.783 156.193 185.509 156.202 171.037 156.214C170.738 155.081 170.55 153.945 170.549 152.808C170.531 142.429 170.546 132.05 170.659 121.484C170.892 121.272 171.018 121.246 171.35 121.257C185.538 121.282 199.521 121.27 213.575 121.323C213.82 121.474 213.992 121.559 214.165 121.644C214.164 132.085 214.165 142.525 214.158 152.965C214.157 153.919 214.096 154.872 214.06 156.005Z" fill="#91278D"/>
<path d="M171.35 121.257C171.054 117.081 170.916 112.943 170.886 108.804C170.842 102.68 170.84 96.5544 170.903 90.4302C170.915 89.179 171.292 87.931 171.749 86.5663C185.644 86.4436 199.292 86.4361 212.939 86.4287C213.224 87.6492 213.748 88.8683 213.756 90.0903C213.822 99.7552 213.793 109.421 213.778 119.086C213.777 119.714 213.649 120.343 213.542 121.114C199.521 121.27 185.538 121.281 171.35 121.257Z" fill="#EE5B27"/>
<path d="M213.002 86.2872C199.292 86.4362 185.644 86.4436 171.792 86.4212C171.473 85.6427 171.263 84.8942 171.262 84.1453C171.24 74.4582 171.246 64.771 171.252 55.0838C171.253 52.3674 171.263 52.3633 174.294 52.363C186.397 52.3615 198.499 52.3614 210.602 52.364C213.217 52.3646 213.304 52.4337 213.306 54.8225C213.314 64.6372 213.315 74.4518 213.301 84.2664C213.301 84.893 213.147 85.5193 213.002 86.2872Z" fill="#89A80D"/>
<path d="M2.09961 214.281H3.83789L7.55859 225.873L11.2695 214.281H13.0078L8.23242 228.5H6.86523L2.09961 214.281ZM1.5332 214.281H3.05664L3.32031 222.953V228.5H1.5332V214.281ZM12.041 214.281H13.5645V228.5H11.7773V222.953L12.041 214.281ZM18.8547 223.725V222.719C18.8547 221.898 18.9589 221.179 19.1672 220.561C19.3755 219.936 19.6652 219.415 20.0363 218.998C20.4074 218.581 20.8404 218.269 21.3352 218.061C21.8299 217.846 22.3605 217.738 22.927 217.738C23.5064 217.738 24.0435 217.846 24.5383 218.061C25.0331 218.269 25.466 218.581 25.8371 218.998C26.2147 219.415 26.5077 219.936 26.716 220.561C26.9243 221.179 27.0285 221.898 27.0285 222.719V223.725C27.0285 224.545 26.9243 225.268 26.716 225.893C26.5077 226.511 26.218 227.029 25.8469 227.445C25.4758 227.862 25.0428 228.174 24.548 228.383C24.0533 228.591 23.5194 228.695 22.9465 228.695C22.3736 228.695 21.8397 228.591 21.3449 228.383C20.8501 228.174 20.4139 227.862 20.0363 227.445C19.6652 227.029 19.3755 226.511 19.1672 225.893C18.9589 225.268 18.8547 224.545 18.8547 223.725ZM20.5832 222.719V223.725C20.5832 224.304 20.6418 224.812 20.759 225.248C20.8762 225.684 21.0422 226.049 21.257 226.342C21.4719 226.635 21.7225 226.856 22.009 227.006C22.2954 227.149 22.6079 227.221 22.9465 227.221C23.3371 227.221 23.6789 227.149 23.9719 227.006C24.2714 226.856 24.5187 226.635 24.7141 226.342C24.9094 226.049 25.0559 225.684 25.1535 225.248C25.2512 224.812 25.3 224.304 25.3 223.725V222.719C25.3 222.139 25.2414 221.635 25.1242 221.205C25.007 220.769 24.841 220.404 24.6262 220.111C24.4113 219.812 24.1574 219.59 23.8645 219.447C23.578 219.298 23.2655 219.223 22.927 219.223C22.5949 219.223 22.2857 219.298 21.9992 219.447C21.7128 219.59 21.4621 219.812 21.2473 220.111C21.0389 220.404 20.8762 220.769 20.759 221.205C20.6418 221.635 20.5832 222.139 20.5832 222.719ZM37.5922 226.449V213.5H39.3109V228.5H37.7387L37.5922 226.449ZM31.684 223.725V222.738C31.684 221.866 31.7686 221.117 31.9379 220.492C32.1072 219.861 32.348 219.343 32.6605 218.939C32.973 218.529 33.3474 218.227 33.7836 218.031C34.2198 217.836 34.7016 217.738 35.2289 217.738C35.7758 217.738 36.2445 217.849 36.6352 218.07C37.0323 218.292 37.3643 218.614 37.6313 219.037C37.8982 219.454 38.1065 219.962 38.2563 220.561C38.4125 221.153 38.5167 221.824 38.5688 222.572V223.891C38.5102 224.633 38.4027 225.3 38.2465 225.893C38.0967 226.485 37.8884 226.99 37.6215 227.406C37.3546 227.823 37.0225 228.142 36.6254 228.363C36.2283 228.585 35.7563 228.695 35.2094 228.695C34.6885 228.695 34.2133 228.594 33.7836 228.393C33.3539 228.184 32.9796 227.875 32.6605 227.465C32.348 227.048 32.1072 226.531 31.9379 225.912C31.7686 225.287 31.684 224.558 31.684 223.725ZM33.4125 222.738V223.725C33.4125 224.311 33.4548 224.822 33.5395 225.258C33.6241 225.688 33.7576 226.046 33.9398 226.332C34.1221 226.612 34.3533 226.82 34.6332 226.957C34.9197 227.094 35.2615 227.162 35.6586 227.162C36.1404 227.162 36.5342 227.045 36.8402 226.811C37.1462 226.576 37.3904 226.267 37.5727 225.883C37.7615 225.492 37.9112 225.072 38.0219 224.623V221.85C37.9568 221.518 37.8624 221.199 37.7387 220.893C37.615 220.58 37.4587 220.303 37.2699 220.062C37.0876 219.815 36.863 219.62 36.5961 219.477C36.3357 219.333 36.0297 219.262 35.6781 219.262C35.281 219.262 34.9359 219.333 34.643 219.477C34.3565 219.62 34.1221 219.835 33.9398 220.121C33.7641 220.408 33.6306 220.769 33.5395 221.205C33.4548 221.641 33.4125 222.152 33.4125 222.738ZM48.5563 228.695C47.9247 228.695 47.3551 228.601 46.8473 228.412C46.3395 228.223 45.9065 227.937 45.5484 227.553C45.1904 227.162 44.9169 226.671 44.7281 226.078C44.5393 225.486 44.4449 224.786 44.4449 223.979V222.787C44.4449 221.856 44.5523 221.068 44.7672 220.424C44.9885 219.779 45.2848 219.262 45.6559 218.871C46.027 218.474 46.4469 218.188 46.9156 218.012C47.3844 217.829 47.8661 217.738 48.3609 217.738C49.025 217.738 49.5914 217.846 50.0602 218.061C50.5289 218.275 50.9098 218.594 51.2027 219.018C51.4957 219.441 51.7105 219.962 51.8473 220.58C51.9905 221.199 52.0621 221.911 52.0621 222.719V223.725H45.4605V222.25H50.3336V222.006C50.3076 221.459 50.2327 220.977 50.109 220.561C49.9918 220.144 49.7965 219.818 49.523 219.584C49.2496 219.343 48.8622 219.223 48.3609 219.223C48.0419 219.223 47.7457 219.278 47.4723 219.389C47.2053 219.493 46.9742 219.678 46.7789 219.945C46.5901 220.206 46.4404 220.567 46.3297 221.029C46.2255 221.492 46.1734 222.077 46.1734 222.787V223.979C46.1734 224.545 46.2255 225.033 46.3297 225.443C46.4404 225.847 46.5999 226.182 46.8082 226.449C47.023 226.71 47.2835 226.905 47.5895 227.035C47.902 227.159 48.2568 227.221 48.6539 227.221C49.2333 227.221 49.7119 227.11 50.0895 226.889C50.4671 226.661 50.7958 226.371 51.0758 226.02L51.984 227.104C51.7952 227.37 51.5478 227.628 51.2418 227.875C50.9423 228.116 50.5712 228.314 50.1285 228.471C49.6923 228.62 49.1682 228.695 48.5563 228.695ZM58.8074 213.5V228.5H57.0887V213.5H58.8074ZM63.9805 223.725V222.719C63.9805 221.898 64.0846 221.179 64.293 220.561C64.5013 219.936 64.791 219.415 65.1621 218.998C65.5332 218.581 65.9661 218.269 66.4609 218.061C66.9557 217.846 67.4863 217.738 68.0527 217.738C68.6322 217.738 69.1693 217.846 69.6641 218.061C70.1589 218.269 70.5918 218.581 70.9629 218.998C71.3405 219.415 71.6335 219.936 71.8418 220.561C72.0501 221.179 72.1543 221.898 72.1543 222.719V223.725C72.1543 224.545 72.0501 225.268 71.8418 225.893C71.6335 226.511 71.3438 227.029 70.9727 227.445C70.6016 227.862 70.1686 228.174 69.6738 228.383C69.179 228.591 68.6452 228.695 68.0723 228.695C67.4993 228.695 66.9655 228.591 66.4707 228.383C65.9759 228.174 65.5397 227.862 65.1621 227.445C64.791 227.029 64.5013 226.511 64.293 225.893C64.0846 225.268 63.9805 224.545 63.9805 223.725ZM65.709 222.719V223.725C65.709 224.304 65.7676 224.812 65.8848 225.248C66.002 225.684 66.168 226.049 66.3828 226.342C66.5977 226.635 66.8483 226.856 67.1348 227.006C67.4212 227.149 67.7337 227.221 68.0723 227.221C68.4629 227.221 68.8047 227.149 69.0977 227.006C69.3971 226.856 69.6445 226.635 69.8398 226.342C70.0352 226.049 70.1816 225.684 70.2793 225.248C70.377 224.812 70.4258 224.304 70.4258 223.725V222.719C70.4258 222.139 70.3672 221.635 70.25 221.205C70.1328 220.769 69.9668 220.404 69.752 220.111C69.5371 219.812 69.2832 219.59 68.9902 219.447C68.7038 219.298 68.3913 219.223 68.0527 219.223C67.7207 219.223 67.4115 219.298 67.125 219.447C66.8385 219.59 66.5879 219.812 66.373 220.111C66.1647 220.404 66.002 220.769 65.8848 221.205C65.7676 221.635 65.709 222.139 65.709 222.719ZM86.6801 214.281V228.5H84.8832V214.281H86.6801ZM94.0992 220.189V228.5H92.3707V217.934H94.0016L94.0992 220.189ZM93.6793 222.816L92.9762 222.787C92.9697 222.064 93.051 221.397 93.2203 220.785C93.3961 220.167 93.6435 219.63 93.9625 219.174C94.288 218.718 94.6754 218.367 95.1246 218.119C95.5738 217.865 96.0719 217.738 96.6188 217.738C97.0484 217.738 97.4391 217.81 97.7906 217.953C98.1422 218.09 98.4417 218.311 98.6891 218.617C98.9365 218.923 99.1253 219.32 99.2555 219.809C99.3922 220.29 99.4605 220.88 99.4605 221.576V228.5H97.732V221.557C97.732 221.003 97.6702 220.561 97.5465 220.229C97.4293 219.89 97.247 219.646 96.9996 219.496C96.7587 219.34 96.4527 219.262 96.0816 219.262C95.7431 219.262 95.4273 219.356 95.1344 219.545C94.8414 219.734 94.5842 219.994 94.3629 220.326C94.148 220.658 93.9788 221.039 93.8551 221.469C93.7379 221.892 93.6793 222.341 93.6793 222.816ZM108.716 217.934V219.32H103.784V217.934H108.716ZM105.395 215.365H107.124V225.883C107.124 226.241 107.166 226.511 107.251 226.693C107.342 226.876 107.456 226.996 107.593 227.055C107.729 227.113 107.876 227.143 108.032 227.143C108.149 227.143 108.279 227.13 108.423 227.104C108.566 227.071 108.664 227.045 108.716 227.025L108.706 228.5C108.589 228.546 108.432 228.588 108.237 228.627C108.042 228.673 107.794 228.695 107.495 228.695C107.124 228.695 106.779 228.607 106.46 228.432C106.141 228.256 105.884 227.963 105.688 227.553C105.493 227.136 105.395 226.576 105.395 225.873V215.365ZM117.355 228.695C116.724 228.695 116.154 228.601 115.646 228.412C115.139 228.223 114.706 227.937 114.348 227.553C113.99 227.162 113.716 226.671 113.527 226.078C113.339 225.486 113.244 224.786 113.244 223.979V222.787C113.244 221.856 113.352 221.068 113.566 220.424C113.788 219.779 114.084 219.262 114.455 218.871C114.826 218.474 115.246 218.188 115.715 218.012C116.184 217.829 116.665 217.738 117.16 217.738C117.824 217.738 118.391 217.846 118.859 218.061C119.328 218.275 119.709 218.594 120.002 219.018C120.295 219.441 120.51 219.962 120.646 220.58C120.79 221.199 120.861 221.911 120.861 222.719V223.725H114.26V222.25H119.133V222.006C119.107 221.459 119.032 220.977 118.908 220.561C118.791 220.144 118.596 219.818 118.322 219.584C118.049 219.343 117.661 219.223 117.16 219.223C116.841 219.223 116.545 219.278 116.271 219.389C116.005 219.493 115.773 219.678 115.578 219.945C115.389 220.206 115.24 220.567 115.129 221.029C115.025 221.492 114.973 222.077 114.973 222.787V223.979C114.973 224.545 115.025 225.033 115.129 225.443C115.24 225.847 115.399 226.182 115.607 226.449C115.822 226.71 116.083 226.905 116.389 227.035C116.701 227.159 117.056 227.221 117.453 227.221C118.033 227.221 118.511 227.11 118.889 226.889C119.266 226.661 119.595 226.371 119.875 226.02L120.783 227.104C120.594 227.37 120.347 227.628 120.041 227.875C119.742 228.116 119.37 228.314 118.928 228.471C118.492 228.62 117.967 228.695 117.355 228.695ZM131.474 217.934H133.027V228.588C133.027 229.519 132.864 230.287 132.538 230.893C132.219 231.498 131.773 231.944 131.2 232.23C130.627 232.523 129.967 232.67 129.218 232.67C128.951 232.67 128.616 232.621 128.212 232.523C127.808 232.426 127.405 232.276 127.001 232.074C126.598 231.879 126.265 231.632 126.005 231.332L126.718 230.131C127.089 230.508 127.483 230.779 127.9 230.941C128.316 231.104 128.713 231.186 129.091 231.186C129.54 231.186 129.931 231.104 130.263 230.941C130.595 230.779 130.852 230.512 131.034 230.141C131.217 229.776 131.308 229.288 131.308 228.676V220.258L131.474 217.934ZM125.4 223.725V222.738C125.4 221.866 125.481 221.117 125.644 220.492C125.807 219.861 126.041 219.343 126.347 218.939C126.659 218.529 127.034 218.227 127.47 218.031C127.906 217.836 128.394 217.738 128.935 217.738C129.482 217.738 129.954 217.849 130.351 218.07C130.748 218.292 131.077 218.614 131.337 219.037C131.604 219.454 131.812 219.962 131.962 220.561C132.118 221.153 132.226 221.824 132.284 222.572V223.891C132.226 224.633 132.118 225.3 131.962 225.893C131.812 226.485 131.601 226.99 131.327 227.406C131.06 227.823 130.728 228.142 130.331 228.363C129.934 228.585 129.462 228.695 128.915 228.695C128.381 228.695 127.9 228.594 127.47 228.393C127.04 228.184 126.669 227.875 126.357 227.465C126.051 227.048 125.813 226.531 125.644 225.912C125.481 225.287 125.4 224.558 125.4 223.725ZM127.128 222.738V223.725C127.128 224.311 127.17 224.822 127.255 225.258C127.34 225.688 127.47 226.046 127.646 226.332C127.828 226.612 128.059 226.82 128.339 226.957C128.626 227.094 128.967 227.162 129.364 227.162C129.846 227.162 130.24 227.045 130.546 226.811C130.852 226.576 131.096 226.267 131.279 225.883C131.467 225.492 131.617 225.072 131.728 224.623V221.85C131.663 221.518 131.568 221.199 131.445 220.893C131.327 220.58 131.174 220.303 130.986 220.062C130.797 219.815 130.569 219.62 130.302 219.477C130.042 219.333 129.736 219.262 129.384 219.262C128.987 219.262 128.645 219.333 128.359 219.477C128.072 219.62 127.838 219.835 127.655 220.121C127.473 220.408 127.34 220.769 127.255 221.205C127.17 221.641 127.128 222.152 127.128 222.738ZM140.143 219.594V228.5H138.414V217.934H140.084L140.143 219.594ZM142.77 217.875L142.78 219.555C142.636 219.522 142.506 219.503 142.389 219.496C142.278 219.483 142.148 219.477 141.998 219.477C141.673 219.477 141.386 219.542 141.139 219.672C140.898 219.802 140.69 219.984 140.514 220.219C140.338 220.453 140.198 220.733 140.094 221.059C139.99 221.378 139.918 221.729 139.879 222.113L139.43 222.406C139.43 221.768 139.479 221.169 139.577 220.609C139.681 220.049 139.84 219.555 140.055 219.125C140.27 218.689 140.543 218.35 140.875 218.109C141.214 217.862 141.618 217.738 142.086 217.738C142.191 217.738 142.317 217.755 142.467 217.787C142.623 217.813 142.724 217.842 142.77 217.875ZM152.093 226.693V220.961C152.093 220.544 152.028 220.209 151.898 219.955C151.774 219.701 151.586 219.516 151.332 219.398C151.084 219.281 150.772 219.223 150.394 219.223C150.03 219.223 149.714 219.298 149.447 219.447C149.186 219.597 148.985 219.796 148.841 220.043C148.705 220.29 148.636 220.564 148.636 220.863H146.908C146.908 220.486 146.989 220.111 147.152 219.74C147.321 219.369 147.562 219.034 147.875 218.734C148.187 218.428 148.561 218.188 148.998 218.012C149.44 217.829 149.935 217.738 150.482 217.738C151.133 217.738 151.709 217.846 152.211 218.061C152.712 218.269 153.106 218.611 153.392 219.086C153.679 219.561 153.822 220.193 153.822 220.98V226.195C153.822 226.547 153.848 226.921 153.9 227.318C153.959 227.715 154.04 228.057 154.144 228.344V228.5H152.357C152.272 228.292 152.207 228.015 152.162 227.67C152.116 227.318 152.093 226.993 152.093 226.693ZM152.367 222.094L152.386 223.363H151.185C150.775 223.363 150.401 223.409 150.062 223.5C149.73 223.591 149.444 223.725 149.203 223.9C148.962 224.07 148.776 224.281 148.646 224.535C148.522 224.789 148.461 225.079 148.461 225.404C148.461 225.827 148.519 226.166 148.636 226.42C148.754 226.667 148.929 226.846 149.164 226.957C149.398 227.068 149.694 227.123 150.052 227.123C150.489 227.123 150.873 227.022 151.205 226.82C151.537 226.618 151.794 226.374 151.976 226.088C152.165 225.801 152.253 225.535 152.24 225.287L152.621 226.098C152.595 226.352 152.51 226.628 152.367 226.928C152.23 227.221 152.038 227.504 151.791 227.777C151.543 228.044 151.25 228.266 150.912 228.441C150.58 228.611 150.205 228.695 149.789 228.695C149.177 228.695 148.64 228.578 148.177 228.344C147.722 228.109 147.367 227.764 147.113 227.309C146.859 226.853 146.732 226.29 146.732 225.619C146.732 225.111 146.82 224.643 146.996 224.213C147.171 223.783 147.432 223.412 147.777 223.1C148.122 222.781 148.555 222.533 149.076 222.357C149.603 222.182 150.212 222.094 150.902 222.094H152.367ZM161.163 213.5V228.5H159.444V213.5H161.163ZM179.624 226.449V213.5H181.343V228.5H179.771L179.624 226.449ZM173.716 223.725V222.738C173.716 221.866 173.801 221.117 173.97 220.492C174.139 219.861 174.38 219.343 174.693 218.939C175.005 218.529 175.379 218.227 175.816 218.031C176.252 217.836 176.734 217.738 177.261 217.738C177.808 217.738 178.277 217.849 178.667 218.07C179.064 218.292 179.396 218.614 179.663 219.037C179.93 219.454 180.139 219.962 180.288 220.561C180.445 221.153 180.549 221.824 180.601 222.572V223.891C180.542 224.633 180.435 225.3 180.279 225.893C180.129 226.485 179.92 226.99 179.654 227.406C179.387 227.823 179.055 228.142 178.657 228.363C178.26 228.585 177.788 228.695 177.241 228.695C176.721 228.695 176.245 228.594 175.816 228.393C175.386 228.184 175.012 227.875 174.693 227.465C174.38 227.048 174.139 226.531 173.97 225.912C173.801 225.287 173.716 224.558 173.716 223.725ZM175.445 222.738V223.725C175.445 224.311 175.487 224.822 175.571 225.258C175.656 225.688 175.79 226.046 175.972 226.332C176.154 226.612 176.385 226.82 176.665 226.957C176.952 227.094 177.293 227.162 177.691 227.162C178.172 227.162 178.566 227.045 178.872 226.811C179.178 226.576 179.422 226.267 179.605 225.883C179.793 225.492 179.943 225.072 180.054 224.623V221.85C179.989 221.518 179.894 221.199 179.771 220.893C179.647 220.58 179.491 220.303 179.302 220.062C179.12 219.815 178.895 219.62 178.628 219.477C178.368 219.333 178.062 219.262 177.71 219.262C177.313 219.262 176.968 219.333 176.675 219.477C176.389 219.62 176.154 219.835 175.972 220.121C175.796 220.408 175.663 220.769 175.571 221.205C175.487 221.641 175.445 222.152 175.445 222.738ZM190.588 228.695C189.957 228.695 189.387 228.601 188.879 228.412C188.371 228.223 187.939 227.937 187.58 227.553C187.222 227.162 186.949 226.671 186.76 226.078C186.571 225.486 186.477 224.786 186.477 223.979V222.787C186.477 221.856 186.584 221.068 186.799 220.424C187.021 219.779 187.317 219.262 187.688 218.871C188.059 218.474 188.479 218.188 188.948 218.012C189.416 217.829 189.898 217.738 190.393 217.738C191.057 217.738 191.623 217.846 192.092 218.061C192.561 218.275 192.942 218.594 193.235 219.018C193.528 219.441 193.743 219.962 193.879 220.58C194.023 221.199 194.094 221.911 194.094 222.719V223.725H187.493V222.25H192.366V222.006C192.34 221.459 192.265 220.977 192.141 220.561C192.024 220.144 191.829 219.818 191.555 219.584C191.282 219.343 190.894 219.223 190.393 219.223C190.074 219.223 189.778 219.278 189.504 219.389C189.237 219.493 189.006 219.678 188.811 219.945C188.622 220.206 188.472 220.567 188.362 221.029C188.258 221.492 188.205 222.077 188.205 222.787V223.979C188.205 224.545 188.258 225.033 188.362 225.443C188.472 225.847 188.632 226.182 188.84 226.449C189.055 226.71 189.316 226.905 189.621 227.035C189.934 227.159 190.289 227.221 190.686 227.221C191.265 227.221 191.744 227.11 192.121 226.889C192.499 226.661 192.828 226.371 193.108 226.02L194.016 227.104C193.827 227.37 193.58 227.628 193.274 227.875C192.974 228.116 192.603 228.314 192.161 228.471C191.724 228.62 191.2 228.695 190.588 228.695ZM212.829 224.906C212.829 224.574 212.79 224.281 212.712 224.027C212.634 223.767 212.497 223.533 212.302 223.324C212.106 223.116 211.833 222.917 211.481 222.729C211.13 222.54 210.684 222.348 210.143 222.152C209.557 221.944 209.027 221.713 208.552 221.459C208.076 221.199 207.669 220.902 207.331 220.57C206.999 220.238 206.742 219.857 206.559 219.428C206.377 218.998 206.286 218.507 206.286 217.953C206.286 217.4 206.38 216.889 206.569 216.42C206.764 215.951 207.038 215.544 207.389 215.199C207.748 214.848 208.177 214.574 208.679 214.379C209.18 214.184 209.74 214.086 210.358 214.086C211.283 214.086 212.061 214.291 212.692 214.701C213.33 215.105 213.812 215.635 214.137 216.293C214.463 216.944 214.626 217.641 214.626 218.383H212.829C212.829 217.849 212.741 217.377 212.565 216.967C212.396 216.55 212.129 216.225 211.764 215.99C211.406 215.749 210.938 215.629 210.358 215.629C209.837 215.629 209.408 215.73 209.069 215.932C208.737 216.133 208.49 216.407 208.327 216.752C208.171 217.097 208.093 217.491 208.093 217.934C208.093 218.233 208.145 218.507 208.249 218.754C208.353 218.995 208.512 219.219 208.727 219.428C208.949 219.636 209.222 219.828 209.548 220.004C209.88 220.18 210.27 220.349 210.72 220.512C211.416 220.74 212.012 220.993 212.507 221.273C213.001 221.553 213.405 221.869 213.718 222.221C214.03 222.566 214.258 222.96 214.401 223.402C214.551 223.839 214.626 224.333 214.626 224.887C214.626 225.466 214.528 225.99 214.333 226.459C214.144 226.928 213.867 227.328 213.503 227.66C213.138 227.992 212.699 228.249 212.184 228.432C211.67 228.607 211.091 228.695 210.446 228.695C209.886 228.695 209.336 228.604 208.796 228.422C208.262 228.24 207.777 227.966 207.341 227.602C206.904 227.237 206.556 226.788 206.296 226.254C206.035 225.714 205.905 225.089 205.905 224.379H207.702C207.702 224.867 207.774 225.287 207.917 225.639C208.06 225.984 208.259 226.27 208.512 226.498C208.766 226.726 209.056 226.895 209.382 227.006C209.714 227.11 210.068 227.162 210.446 227.162C210.967 227.162 211.403 227.071 211.755 226.889C212.113 226.706 212.38 226.446 212.555 226.107C212.738 225.769 212.829 225.368 212.829 224.906ZM223.324 228.695C222.693 228.695 222.123 228.601 221.615 228.412C221.107 228.223 220.674 227.937 220.316 227.553C219.958 227.162 219.685 226.671 219.496 226.078C219.307 225.486 219.213 224.786 219.213 223.979V222.787C219.213 221.856 219.32 221.068 219.535 220.424C219.757 219.779 220.053 219.262 220.424 218.871C220.795 218.474 221.215 218.188 221.684 218.012C222.152 217.829 222.634 217.738 223.129 217.738C223.793 217.738 224.359 217.846 224.828 218.061C225.297 218.275 225.678 218.594 225.971 219.018C226.264 219.441 226.479 219.962 226.615 220.58C226.758 221.199 226.83 221.911 226.83 222.719V223.725H220.229V222.25H225.102V222.006C225.076 221.459 225.001 220.977 224.877 220.561C224.76 220.144 224.564 219.818 224.291 219.584C224.018 219.343 223.63 219.223 223.129 219.223C222.81 219.223 222.514 219.278 222.24 219.389C221.973 219.493 221.742 219.678 221.547 219.945C221.358 220.206 221.208 220.567 221.098 221.029C220.993 221.492 220.941 222.077 220.941 222.787V223.979C220.941 224.545 220.993 225.033 221.098 225.443C221.208 225.847 221.368 226.182 221.576 226.449C221.791 226.71 222.051 226.905 222.357 227.035C222.67 227.159 223.025 227.221 223.422 227.221C224.001 227.221 224.48 227.11 224.857 226.889C225.235 226.661 225.564 226.371 225.844 226.02L226.752 227.104C226.563 227.37 226.316 227.628 226.01 227.875C225.71 228.116 225.339 228.314 224.896 228.471C224.46 228.62 223.936 228.695 223.324 228.695ZM233.448 219.594V228.5H231.72V217.934H233.39L233.448 219.594ZM236.075 217.875L236.085 219.555C235.942 219.522 235.812 219.503 235.695 219.496C235.584 219.483 235.454 219.477 235.304 219.477C234.978 219.477 234.692 219.542 234.445 219.672C234.204 219.802 233.995 219.984 233.82 220.219C233.644 220.453 233.504 220.733 233.4 221.059C233.295 221.378 233.224 221.729 233.185 222.113L232.736 222.406C232.736 221.768 232.784 221.169 232.882 220.609C232.986 220.049 233.146 219.555 233.361 219.125C233.575 218.689 233.849 218.35 234.181 218.109C234.519 217.862 234.923 217.738 235.392 217.738C235.496 217.738 235.623 217.755 235.773 217.787C235.929 217.813 236.03 217.842 236.075 217.875ZM243.524 226.869L245.789 217.934H247.547L244.413 228.5H243.27L243.524 226.869ZM241.698 217.934L244.061 226.918L244.246 228.5H243.114L239.94 217.934H241.698ZM254 217.934V228.5H252.281V217.934H254ZM252.183 215.131C252.183 214.838 252.265 214.59 252.427 214.389C252.59 214.187 252.834 214.086 253.16 214.086C253.485 214.086 253.729 214.187 253.892 214.389C254.061 214.59 254.146 214.838 254.146 215.131C254.146 215.411 254.061 215.652 253.892 215.854C253.729 216.049 253.485 216.146 253.16 216.146C252.834 216.146 252.59 216.049 252.427 215.854C252.265 215.652 252.183 215.411 252.183 215.131ZM263.196 227.221C263.541 227.221 263.854 227.152 264.134 227.016C264.42 226.872 264.654 226.651 264.837 226.352C265.019 226.046 265.123 225.648 265.149 225.16H266.77C266.744 225.863 266.565 226.482 266.233 227.016C265.908 227.543 265.478 227.956 264.944 228.256C264.417 228.549 263.834 228.695 263.196 228.695C262.513 228.695 261.917 228.585 261.409 228.363C260.908 228.142 260.491 227.823 260.159 227.406C259.833 226.983 259.589 226.472 259.427 225.873C259.264 225.268 259.182 224.581 259.182 223.812V222.621C259.182 221.853 259.264 221.169 259.427 220.57C259.589 219.965 259.833 219.454 260.159 219.037C260.491 218.614 260.908 218.292 261.409 218.07C261.917 217.849 262.513 217.738 263.196 217.738C263.912 217.738 264.531 217.891 265.052 218.197C265.579 218.497 265.989 218.933 266.282 219.506C266.582 220.072 266.744 220.759 266.77 221.566H265.149C265.123 221.046 265.029 220.613 264.866 220.268C264.703 219.916 264.482 219.656 264.202 219.486C263.922 219.311 263.587 219.223 263.196 219.223C262.74 219.223 262.363 219.304 262.063 219.467C261.77 219.623 261.539 219.851 261.37 220.15C261.201 220.45 261.08 220.808 261.009 221.225C260.944 221.641 260.911 222.107 260.911 222.621V223.812C260.911 224.327 260.944 224.796 261.009 225.219C261.08 225.635 261.197 225.993 261.36 226.293C261.529 226.592 261.764 226.824 262.063 226.986C262.363 227.143 262.74 227.221 263.196 227.221ZM273.428 217.934V228.5H271.709V217.934H273.428ZM271.611 215.131C271.611 214.838 271.693 214.59 271.855 214.389C272.018 214.187 272.262 214.086 272.588 214.086C272.913 214.086 273.158 214.187 273.32 214.389C273.49 214.59 273.574 214.838 273.574 215.131C273.574 215.411 273.49 215.652 273.32 215.854C273.158 216.049 272.913 216.146 272.588 216.146C272.262 216.146 272.018 216.049 271.855 215.854C271.693 215.652 271.611 215.411 271.611 215.131ZM278.601 223.725V222.719C278.601 221.898 278.705 221.179 278.913 220.561C279.122 219.936 279.411 219.415 279.782 218.998C280.154 218.581 280.586 218.269 281.081 218.061C281.576 217.846 282.107 217.738 282.673 217.738C283.252 217.738 283.79 217.846 284.284 218.061C284.779 218.269 285.212 218.581 285.583 218.998C285.961 219.415 286.254 219.936 286.462 220.561C286.67 221.179 286.775 221.898 286.775 222.719V223.725C286.775 224.545 286.67 225.268 286.462 225.893C286.254 226.511 285.964 227.029 285.593 227.445C285.222 227.862 284.789 228.174 284.294 228.383C283.799 228.591 283.265 228.695 282.693 228.695C282.12 228.695 281.586 228.591 281.091 228.383C280.596 228.174 280.16 227.862 279.782 227.445C279.411 227.029 279.122 226.511 278.913 225.893C278.705 225.268 278.601 224.545 278.601 223.725ZM280.329 222.719V223.725C280.329 224.304 280.388 224.812 280.505 225.248C280.622 225.684 280.788 226.049 281.003 226.342C281.218 226.635 281.469 226.856 281.755 227.006C282.042 227.149 282.354 227.221 282.693 227.221C283.083 227.221 283.425 227.149 283.718 227.006C284.017 226.856 284.265 226.635 284.46 226.342C284.655 226.049 284.802 225.684 284.9 225.248C284.997 224.812 285.046 224.304 285.046 223.725V222.719C285.046 222.139 284.987 221.635 284.87 221.205C284.753 220.769 284.587 220.404 284.372 220.111C284.157 219.812 283.904 219.59 283.611 219.447C283.324 219.298 283.012 219.223 282.673 219.223C282.341 219.223 282.032 219.298 281.745 219.447C281.459 219.59 281.208 219.812 280.993 220.111C280.785 220.404 280.622 220.769 280.505 221.205C280.388 221.635 280.329 222.139 280.329 222.719ZM296.928 225.795C296.928 225.528 296.863 225.294 296.733 225.092C296.603 224.89 296.388 224.695 296.088 224.506C295.795 224.317 295.398 224.115 294.897 223.9C294.409 223.699 293.969 223.5 293.579 223.305C293.194 223.103 292.869 222.885 292.602 222.65C292.335 222.416 292.13 222.146 291.987 221.84C291.85 221.527 291.782 221.16 291.782 220.736C291.782 220.313 291.86 219.923 292.016 219.564C292.179 219.2 292.407 218.881 292.7 218.607C292.993 218.334 293.344 218.122 293.754 217.973C294.164 217.816 294.623 217.738 295.131 217.738C295.854 217.738 296.469 217.878 296.977 218.158C297.485 218.438 297.872 218.822 298.139 219.311C298.413 219.792 298.549 220.336 298.549 220.941H296.83C296.83 220.648 296.765 220.372 296.635 220.111C296.505 219.851 296.313 219.639 296.059 219.477C295.805 219.307 295.496 219.223 295.131 219.223C294.747 219.223 294.435 219.291 294.194 219.428C293.953 219.564 293.777 219.743 293.666 219.965C293.562 220.18 293.51 220.417 293.51 220.678C293.51 220.873 293.536 221.042 293.588 221.186C293.647 221.322 293.745 221.452 293.881 221.576C294.018 221.693 294.204 221.817 294.438 221.947C294.679 222.071 294.985 222.214 295.356 222.377C296.072 222.657 296.674 222.94 297.163 223.227C297.651 223.513 298.022 223.848 298.276 224.232C298.53 224.617 298.657 225.092 298.657 225.658C298.657 226.12 298.572 226.54 298.403 226.918C298.24 227.289 298.006 227.608 297.7 227.875C297.394 228.142 297.026 228.347 296.596 228.49C296.173 228.627 295.698 228.695 295.17 228.695C294.376 228.695 293.702 228.539 293.149 228.227C292.602 227.908 292.185 227.494 291.899 226.986C291.619 226.472 291.479 225.922 291.479 225.336H293.207C293.227 225.831 293.338 226.215 293.539 226.488C293.748 226.762 293.998 226.951 294.291 227.055C294.584 227.159 294.877 227.211 295.17 227.211C295.554 227.211 295.877 227.156 296.137 227.045C296.398 226.928 296.593 226.762 296.723 226.547C296.86 226.332 296.928 226.081 296.928 225.795ZM318.993 226.967V228.5H312.821V226.967H318.993ZM313.143 214.281V228.5H311.346V214.281H313.143ZM318.163 220.395V221.928H312.821V220.395H318.163ZM318.895 214.281V215.824H312.821V214.281H318.895ZM325.582 220.033V228.5H323.863V217.934H325.484L325.582 220.033ZM325.23 222.816L324.43 222.787C324.423 222.064 324.495 221.397 324.645 220.785C324.794 220.167 325.019 219.63 325.318 219.174C325.624 218.718 326.005 218.367 326.461 218.119C326.923 217.865 327.46 217.738 328.072 217.738C328.476 217.738 328.85 217.81 329.195 217.953C329.547 218.09 329.853 218.308 330.113 218.607C330.374 218.907 330.576 219.291 330.719 219.76C330.868 220.229 330.943 220.795 330.943 221.459V228.5H329.215V221.547C329.215 220.993 329.14 220.551 328.99 220.219C328.847 219.887 328.642 219.646 328.375 219.496C328.108 219.34 327.789 219.262 327.418 219.262C326.995 219.262 326.64 219.356 326.354 219.545C326.074 219.734 325.849 219.994 325.68 220.326C325.517 220.658 325.4 221.039 325.328 221.469C325.263 221.892 325.23 222.341 325.23 222.816ZM330.924 221.82L329.771 222.191C329.765 221.612 329.837 221.055 329.986 220.521C330.136 219.988 330.357 219.512 330.65 219.096C330.95 218.679 331.321 218.35 331.764 218.109C332.206 217.862 332.721 217.738 333.307 217.738C333.788 217.738 334.215 217.813 334.586 217.963C334.957 218.113 335.27 218.344 335.523 218.656C335.784 218.962 335.979 219.356 336.109 219.838C336.24 220.32 336.305 220.893 336.305 221.557V228.5H334.576V221.537C334.576 220.945 334.501 220.486 334.352 220.16C334.208 219.828 334.003 219.597 333.736 219.467C333.469 219.33 333.15 219.262 332.779 219.262C332.48 219.262 332.213 219.33 331.979 219.467C331.751 219.604 331.559 219.792 331.402 220.033C331.246 220.268 331.126 220.538 331.041 220.844C330.963 221.15 330.924 221.475 330.924 221.82ZM343.441 219.965V232.562H341.712V217.934H343.284L343.441 219.965ZM349.349 222.738V223.725C349.349 224.558 349.271 225.287 349.114 225.912C348.965 226.531 348.74 227.048 348.441 227.465C348.148 227.875 347.786 228.184 347.357 228.393C346.927 228.594 346.435 228.695 345.882 228.695C345.329 228.695 344.847 228.591 344.437 228.383C344.033 228.168 343.691 227.859 343.411 227.455C343.138 227.051 342.92 226.566 342.757 226C342.601 225.427 342.493 224.786 342.435 224.076V222.572C342.493 221.824 342.601 221.153 342.757 220.561C342.913 219.962 343.128 219.454 343.402 219.037C343.681 218.614 344.023 218.292 344.427 218.07C344.837 217.849 345.316 217.738 345.862 217.738C346.429 217.738 346.927 217.836 347.357 218.031C347.793 218.227 348.157 218.529 348.45 218.939C348.75 219.343 348.974 219.861 349.124 220.492C349.274 221.117 349.349 221.866 349.349 222.738ZM347.62 223.725V222.738C347.62 222.152 347.575 221.641 347.484 221.205C347.399 220.769 347.262 220.408 347.073 220.121C346.885 219.835 346.647 219.62 346.361 219.477C346.074 219.333 345.729 219.262 345.325 219.262C344.98 219.262 344.674 219.333 344.407 219.477C344.147 219.62 343.922 219.815 343.734 220.062C343.545 220.303 343.389 220.58 343.265 220.893C343.141 221.199 343.05 221.518 342.991 221.85V224.809C343.102 225.225 343.249 225.619 343.431 225.99C343.613 226.355 343.857 226.651 344.163 226.879C344.476 227.107 344.87 227.221 345.345 227.221C345.742 227.221 346.084 227.149 346.37 227.006C346.657 226.863 346.891 226.648 347.073 226.361C347.262 226.068 347.399 225.704 347.484 225.268C347.575 224.825 347.62 224.311 347.62 223.725ZM356.104 219.594V228.5H354.375V217.934H356.045L356.104 219.594ZM358.731 217.875L358.741 219.555C358.597 219.522 358.467 219.503 358.35 219.496C358.239 219.483 358.109 219.477 357.959 219.477C357.634 219.477 357.347 219.542 357.1 219.672C356.859 219.802 356.651 219.984 356.475 220.219C356.299 220.453 356.159 220.733 356.055 221.059C355.951 221.378 355.879 221.729 355.84 222.113L355.391 222.406C355.391 221.768 355.44 221.169 355.538 220.609C355.642 220.049 355.801 219.555 356.016 219.125C356.231 218.689 356.504 218.35 356.836 218.109C357.175 217.862 357.579 217.738 358.047 217.738C358.151 217.738 358.278 217.755 358.428 217.787C358.584 217.813 358.685 217.842 358.731 217.875ZM366.853 228.695C366.222 228.695 365.652 228.601 365.144 228.412C364.636 228.223 364.203 227.937 363.845 227.553C363.487 227.162 363.214 226.671 363.025 226.078C362.836 225.486 362.742 224.786 362.742 223.979V222.787C362.742 221.856 362.849 221.068 363.064 220.424C363.285 219.779 363.582 219.262 363.953 218.871C364.324 218.474 364.744 218.188 365.212 218.012C365.681 217.829 366.163 217.738 366.658 217.738C367.322 217.738 367.888 217.846 368.357 218.061C368.826 218.275 369.207 218.594 369.5 219.018C369.793 219.441 370.007 219.962 370.144 220.58C370.287 221.199 370.359 221.911 370.359 222.719V223.725H363.757V222.25H368.63V222.006C368.604 221.459 368.53 220.977 368.406 220.561C368.289 220.144 368.093 219.818 367.82 219.584C367.546 219.343 367.159 219.223 366.658 219.223C366.339 219.223 366.043 219.278 365.769 219.389C365.502 219.493 365.271 219.678 365.076 219.945C364.887 220.206 364.737 220.567 364.627 221.029C364.522 221.492 364.47 222.077 364.47 222.787V223.979C364.47 224.545 364.522 225.033 364.627 225.443C364.737 225.847 364.897 226.182 365.105 226.449C365.32 226.71 365.58 226.905 365.886 227.035C366.199 227.159 366.554 227.221 366.951 227.221C367.53 227.221 368.009 227.11 368.386 226.889C368.764 226.661 369.093 226.371 369.373 226.02L370.281 227.104C370.092 227.37 369.845 227.628 369.539 227.875C369.239 228.116 368.868 228.314 368.425 228.471C367.989 228.62 367.465 228.695 366.853 228.695ZM380.376 225.795C380.376 225.528 380.311 225.294 380.18 225.092C380.05 224.89 379.835 224.695 379.536 224.506C379.243 224.317 378.846 224.115 378.345 223.9C377.856 223.699 377.417 223.5 377.026 223.305C376.642 223.103 376.317 222.885 376.05 222.65C375.783 222.416 375.578 222.146 375.434 221.84C375.298 221.527 375.229 221.16 375.229 220.736C375.229 220.313 375.307 219.923 375.464 219.564C375.626 219.2 375.854 218.881 376.147 218.607C376.44 218.334 376.792 218.122 377.202 217.973C377.612 217.816 378.071 217.738 378.579 217.738C379.302 217.738 379.917 217.878 380.425 218.158C380.932 218.438 381.32 218.822 381.587 219.311C381.86 219.792 381.997 220.336 381.997 220.941H380.278C380.278 220.648 380.213 220.372 380.083 220.111C379.953 219.851 379.761 219.639 379.507 219.477C379.253 219.307 378.944 219.223 378.579 219.223C378.195 219.223 377.882 219.291 377.641 219.428C377.401 219.564 377.225 219.743 377.114 219.965C377.01 220.18 376.958 220.417 376.958 220.678C376.958 220.873 376.984 221.042 377.036 221.186C377.095 221.322 377.192 221.452 377.329 221.576C377.466 221.693 377.651 221.817 377.886 221.947C378.126 222.071 378.432 222.214 378.804 222.377C379.52 222.657 380.122 222.94 380.61 223.227C381.098 223.513 381.47 223.848 381.723 224.232C381.977 224.617 382.104 225.092 382.104 225.658C382.104 226.12 382.02 226.54 381.85 226.918C381.688 227.289 381.453 227.608 381.147 227.875C380.841 228.142 380.473 228.347 380.044 228.49C379.621 228.627 379.145 228.695 378.618 228.695C377.824 228.695 377.15 228.539 376.596 228.227C376.05 227.908 375.633 227.494 375.346 226.986C375.067 226.472 374.927 225.922 374.927 225.336H376.655C376.675 225.831 376.785 226.215 376.987 226.488C377.195 226.762 377.446 226.951 377.739 227.055C378.032 227.159 378.325 227.211 378.618 227.211C379.002 227.211 379.324 227.156 379.585 227.045C379.845 226.928 380.041 226.762 380.171 226.547C380.307 226.332 380.376 226.081 380.376 225.795ZM392.346 226.693V220.961C392.346 220.544 392.281 220.209 392.15 219.955C392.027 219.701 391.838 219.516 391.584 219.398C391.337 219.281 391.024 219.223 390.646 219.223C390.282 219.223 389.966 219.298 389.699 219.447C389.439 219.597 389.237 219.796 389.094 220.043C388.957 220.29 388.889 220.564 388.889 220.863H387.16C387.16 220.486 387.242 220.111 387.404 219.74C387.574 219.369 387.814 219.034 388.127 218.734C388.439 218.428 388.814 218.188 389.25 218.012C389.693 217.829 390.188 217.738 390.734 217.738C391.385 217.738 391.962 217.846 392.463 218.061C392.964 218.269 393.358 218.611 393.645 219.086C393.931 219.561 394.074 220.193 394.074 220.98V226.195C394.074 226.547 394.1 226.921 394.152 227.318C394.211 227.715 394.292 228.057 394.396 228.344V228.5H392.609C392.525 228.292 392.46 228.015 392.414 227.67C392.368 227.318 392.346 226.993 392.346 226.693ZM392.619 222.094L392.639 223.363H391.438C391.027 223.363 390.653 223.409 390.314 223.5C389.982 223.591 389.696 223.725 389.455 223.9C389.214 224.07 389.029 224.281 388.898 224.535C388.775 224.789 388.713 225.079 388.713 225.404C388.713 225.827 388.771 226.166 388.889 226.42C389.006 226.667 389.182 226.846 389.416 226.957C389.65 227.068 389.947 227.123 390.305 227.123C390.741 227.123 391.125 227.022 391.457 226.82C391.789 226.618 392.046 226.374 392.229 226.088C392.417 225.801 392.505 225.535 392.492 225.287L392.873 226.098C392.847 226.352 392.762 226.628 392.619 226.928C392.482 227.221 392.29 227.504 392.043 227.777C391.796 228.044 391.503 228.266 391.164 228.441C390.832 228.611 390.458 228.695 390.041 228.695C389.429 228.695 388.892 228.578 388.43 228.344C387.974 228.109 387.619 227.764 387.365 227.309C387.111 226.853 386.984 226.29 386.984 225.619C386.984 225.111 387.072 224.643 387.248 224.213C387.424 223.783 387.684 223.412 388.029 223.1C388.374 222.781 388.807 222.533 389.328 222.357C389.855 222.182 390.464 222.094 391.154 222.094H392.619ZM401.288 219.594V228.5H399.56V217.934H401.23L401.288 219.594ZM403.915 217.875L403.925 219.555C403.782 219.522 403.652 219.503 403.534 219.496C403.424 219.483 403.293 219.477 403.144 219.477C402.818 219.477 402.532 219.542 402.284 219.672C402.043 219.802 401.835 219.984 401.659 220.219C401.484 220.453 401.344 220.733 401.239 221.059C401.135 221.378 401.064 221.729 401.025 222.113L400.575 222.406C400.575 221.768 400.624 221.169 400.722 220.609C400.826 220.049 400.986 219.555 401.2 219.125C401.415 218.689 401.689 218.35 402.021 218.109C402.359 217.862 402.763 217.738 403.232 217.738C403.336 217.738 403.463 217.755 403.612 217.787C403.769 217.813 403.87 217.842 403.915 217.875ZM410.309 217.934V228.5H408.59V217.934H410.309ZM408.493 215.131C408.493 214.838 408.574 214.59 408.737 214.389C408.899 214.187 409.144 214.086 409.469 214.086C409.795 214.086 410.039 214.187 410.202 214.389C410.371 214.59 410.455 214.838 410.455 215.131C410.455 215.411 410.371 215.652 410.202 215.854C410.039 216.049 409.795 216.146 409.469 216.146C409.144 216.146 408.899 216.049 408.737 215.854C408.574 215.652 408.493 215.411 408.493 215.131ZM421.019 226.693V220.961C421.019 220.544 420.954 220.209 420.824 219.955C420.7 219.701 420.511 219.516 420.257 219.398C420.01 219.281 419.698 219.223 419.32 219.223C418.955 219.223 418.64 219.298 418.373 219.447C418.112 219.597 417.91 219.796 417.767 220.043C417.63 220.29 417.562 220.564 417.562 220.863H415.834C415.834 220.486 415.915 220.111 416.078 219.74C416.247 219.369 416.488 219.034 416.8 218.734C417.113 218.428 417.487 218.188 417.923 218.012C418.366 217.829 418.861 217.738 419.408 217.738C420.059 217.738 420.635 217.846 421.136 218.061C421.638 218.269 422.032 218.611 422.318 219.086C422.604 219.561 422.748 220.193 422.748 220.98V226.195C422.748 226.547 422.774 226.921 422.826 227.318C422.884 227.715 422.966 228.057 423.07 228.344V228.5H421.283C421.198 228.292 421.133 228.015 421.087 227.67C421.042 227.318 421.019 226.993 421.019 226.693ZM421.293 222.094L421.312 223.363H420.111C419.701 223.363 419.326 223.409 418.988 223.5C418.656 223.591 418.369 223.725 418.129 223.9C417.888 224.07 417.702 224.281 417.572 224.535C417.448 224.789 417.386 225.079 417.386 225.404C417.386 225.827 417.445 226.166 417.562 226.42C417.679 226.667 417.855 226.846 418.089 226.957C418.324 227.068 418.62 227.123 418.978 227.123C419.414 227.123 419.798 227.022 420.13 226.82C420.462 226.618 420.72 226.374 420.902 226.088C421.091 225.801 421.179 225.535 421.166 225.287L421.546 226.098C421.52 226.352 421.436 226.628 421.293 226.928C421.156 227.221 420.964 227.504 420.716 227.777C420.469 228.044 420.176 228.266 419.837 228.441C419.505 228.611 419.131 228.695 418.714 228.695C418.102 228.695 417.565 228.578 417.103 228.344C416.647 228.109 416.293 227.764 416.039 227.309C415.785 226.853 415.658 226.29 415.658 225.619C415.658 225.111 415.746 224.643 415.921 224.213C416.097 223.783 416.358 223.412 416.703 223.1C417.048 222.781 417.481 222.533 418.002 222.357C418.529 222.182 419.138 222.094 419.828 222.094H421.293ZM430.089 213.5V228.5H428.37V213.5H430.089ZM439.402 228.695C438.771 228.695 438.201 228.601 437.693 228.412C437.186 228.223 436.753 227.937 436.395 227.553C436.036 227.162 435.763 226.671 435.574 226.078C435.385 225.486 435.291 224.786 435.291 223.979V222.787C435.291 221.856 435.398 221.068 435.613 220.424C435.835 219.779 436.131 219.262 436.502 218.871C436.873 218.474 437.293 218.188 437.762 218.012C438.23 217.829 438.712 217.738 439.207 217.738C439.871 217.738 440.438 217.846 440.906 218.061C441.375 218.275 441.756 218.594 442.049 219.018C442.342 219.441 442.557 219.962 442.693 220.58C442.837 221.199 442.908 221.911 442.908 222.719V223.725H436.307V222.25H441.18V222.006C441.154 221.459 441.079 220.977 440.955 220.561C440.838 220.144 440.643 219.818 440.369 219.584C440.096 219.343 439.708 219.223 439.207 219.223C438.888 219.223 438.592 219.278 438.318 219.389C438.051 219.493 437.82 219.678 437.625 219.945C437.436 220.206 437.286 220.567 437.176 221.029C437.072 221.492 437.02 222.077 437.02 222.787V223.979C437.02 224.545 437.072 225.033 437.176 225.443C437.286 225.847 437.446 226.182 437.654 226.449C437.869 226.71 438.13 226.905 438.436 227.035C438.748 227.159 439.103 227.221 439.5 227.221C440.079 227.221 440.558 227.11 440.936 226.889C441.313 226.661 441.642 226.371 441.922 226.02L442.83 227.104C442.641 227.37 442.394 227.628 442.088 227.875C441.788 228.116 441.417 228.314 440.975 228.471C440.538 228.62 440.014 228.695 439.402 228.695ZM452.925 225.795C452.925 225.528 452.86 225.294 452.73 225.092C452.599 224.89 452.385 224.695 452.085 224.506C451.792 224.317 451.395 224.115 450.894 223.9C450.405 223.699 449.966 223.5 449.575 223.305C449.191 223.103 448.866 222.885 448.599 222.65C448.332 222.416 448.127 222.146 447.984 221.84C447.847 221.527 447.779 221.16 447.779 220.736C447.779 220.313 447.857 219.923 448.013 219.564C448.176 219.2 448.404 218.881 448.696 218.607C448.989 218.334 449.341 218.122 449.751 217.973C450.161 217.816 450.62 217.738 451.128 217.738C451.851 217.738 452.466 217.878 452.974 218.158C453.482 218.438 453.869 218.822 454.136 219.311C454.409 219.792 454.546 220.336 454.546 220.941H452.827C452.827 220.648 452.762 220.372 452.632 220.111C452.502 219.851 452.31 219.639 452.056 219.477C451.802 219.307 451.493 219.223 451.128 219.223C450.744 219.223 450.431 219.291 450.191 219.428C449.95 219.564 449.774 219.743 449.663 219.965C449.559 220.18 449.507 220.417 449.507 220.678C449.507 220.873 449.533 221.042 449.585 221.186C449.644 221.322 449.741 221.452 449.878 221.576C450.015 221.693 450.2 221.817 450.435 221.947C450.676 222.071 450.982 222.214 451.353 222.377C452.069 222.657 452.671 222.94 453.159 223.227C453.648 223.513 454.019 223.848 454.273 224.232C454.527 224.617 454.654 225.092 454.654 225.658C454.654 226.12 454.569 226.54 454.4 226.918C454.237 227.289 454.002 227.608 453.696 227.875C453.39 228.142 453.023 228.347 452.593 228.49C452.17 228.627 451.695 228.695 451.167 228.695C450.373 228.695 449.699 228.539 449.146 228.227C448.599 227.908 448.182 227.494 447.896 226.986C447.616 226.472 447.476 225.922 447.476 225.336H449.204C449.224 225.831 449.334 226.215 449.536 226.488C449.745 226.762 449.995 226.951 450.288 227.055C450.581 227.159 450.874 227.211 451.167 227.211C451.551 227.211 451.874 227.156 452.134 227.045C452.394 226.928 452.59 226.762 452.72 226.547C452.857 226.332 452.925 226.081 452.925 225.795Z" fill="white"/>
</svg>
